# xmcd
#
# Track frame offsets: 
#        150
#        16401
#        29073
#        38416
#        47867
#        61416
#        75283
#        84777
#        100632
#        116813
#
# Disc length: 1734 seconds
#
# Revision: 0
# Processed by: cddbd v1.5.2PL0 Copyright (c) Steve Scherf et al.
# Submitted via: ExactAudioCopy v1.3
#
DISCID=6d06c40a
DTITLE=Solomon King - Medicine
DYEAR=2011
DGENRE=West Coast Blues
TTITLE0=Medicine
TTITLE1=Baby Does Me Good
TTITLE2=Make You Mine
TTITLE3=Little Wheel
TTITLE4=Don't You Love Me No More
TTITLE5=Closer
TTITLE6=Cinnamon Rose
TTITLE7=Bucket
TTITLE8=Trouble
TTITLE9=Be My Baby
EXTD=
EXTT0=
EXTT1=
EXTT2=
EXTT3=
EXTT4=
EXTT5=
EXTT6=
EXTT7=
EXTT8=
EXTT9=
PLAYORDER=
